<svg width="175" height="39" viewBox="0 0 175 39" fill="none" xmlns="http://www.w3.org/2000/svg">
<path d="M62.608 33.0201C61.1098 33.0201 59.8167 32.7044 58.7285 32.073C57.6561 31.41 56.8203 30.5418 56.221 29.4369C55.6375 28.3161 55.3537 27.0533 55.3537 25.6642V8.8528H46.9954V5.50632H67.4968V8.8528H59.1385V26.1377C59.1385 27.1638 59.4539 28.0162 60.0848 28.695C60.7313 29.3421 61.5987 29.6736 62.6711 29.6736H64.4847V33.0201H62.608Z" fill="#F27400"/>
<path d="M80.6492 33.4937C78.8356 33.4937 77.2271 33.1306 75.7762 32.3887C74.3569 31.631 73.2529 30.5734 72.4329 29.2474C71.6444 27.9057 71.2501 26.3587 71.2501 24.575V12.9728H74.9088V24.5276C74.9088 25.7273 75.1769 26.7849 75.6973 27.6689C76.2178 28.5371 76.9117 29.2001 77.779 29.6736C78.6622 30.1472 79.6084 30.384 80.6019 30.384C81.627 30.384 82.5574 30.1472 83.4248 29.6736C84.3079 29.2001 85.0176 28.5371 85.538 27.6689C86.09 26.7849 86.3581 25.7273 86.3581 24.5276V12.9728H90.0168V24.5592C90.0168 26.3429 89.6067 27.9057 88.8024 29.2317C87.9982 30.5734 86.8785 31.6152 85.4592 32.3729C84.0714 33.1306 82.4628 33.4937 80.6492 33.4937Z" fill="#F27400"/>
<path d="M96.8295 33.0201V13.8883C96.8295 11.5205 97.4919 9.65787 98.8166 8.3319C100.173 6.97436 102.049 6.29559 104.415 6.29559H109.02V9.48423H105.14C103.611 9.48423 102.428 9.91043 101.639 10.747C100.867 11.5837 100.488 12.7676 100.488 14.3145V33.0201H96.8295Z" fill="#F27400"/>
<path d="M112.584 33.0201V21.4337C112.584 19.65 112.978 18.0872 113.767 16.7612C114.571 15.4195 115.691 14.3935 117.11 13.6515C118.529 12.8938 120.138 12.515 121.936 12.515C123.765 12.515 125.374 12.8938 126.762 13.6515C128.181 14.3777 129.269 15.4195 130.058 16.7612C130.862 18.103 131.272 19.65 131.272 21.4337V33.0201H127.66V21.4653C127.66 20.2656 127.392 19.2238 126.84 18.3556C126.32 17.4716 125.61 16.777 124.727 16.3193C123.86 15.8457 122.929 15.6089 121.936 15.6089C120.942 15.6089 119.996 15.8457 119.113 16.3193C118.246 16.7928 117.536 17.4716 117 18.3556C116.479 19.2238 116.211 20.2498 116.211 21.4653V33.0201H112.584Z" fill="#F27400"/>
<path d="M140.434 33.0201C139.472 33.0201 138.621 32.8307 137.927 32.4361C137.217 32.0099 136.681 31.4732 136.318 30.826C135.956 30.1788 135.766 29.4369 135.766 28.6318C135.766 27.8425 135.956 27.0848 136.35 26.3587C136.744 25.601 137.296 24.9696 138.006 24.4645L146.963 18.0556C147.831 17.4242 148.477 16.7139 148.919 15.8931C149.36 15.088 149.581 14.2514 149.581 13.4148C149.581 12.5308 149.376 11.7573 148.95 11.0943C148.525 10.4156 147.909 9.87885 147.105 9.48422C146.317 9.05801 145.355 8.8528 144.203 8.8528H137.091V5.50632H144.598C146.459 5.50632 148.02 5.86938 149.313 6.61129C150.622 7.32163 151.615 8.26875 152.294 9.48422C153.003 10.6681 153.35 11.9783 153.35 13.4148C153.35 14.8512 153.003 16.2088 152.325 17.4558C151.679 18.6871 150.638 19.792 149.218 20.7549L140.308 26.9586C140.04 27.1164 139.835 27.3216 139.677 27.59C139.551 27.8268 139.488 28.0793 139.488 28.3319C139.488 28.7265 139.614 29.058 139.882 29.3106C140.166 29.5474 140.561 29.6579 141.065 29.6579H154.028V33.0043H140.434V33.0201Z" fill="#F27400"/>
<path d="M171.044 33.0201C168.947 32.9886 167.039 32.6255 165.32 31.9152C163.585 31.189 162.103 30.1788 160.841 28.9317C159.611 27.6689 158.649 26.2167 157.971 24.575C157.324 22.9175 156.993 21.1496 156.993 19.2711C156.993 17.3769 157.324 15.6089 157.971 13.9672C158.649 12.3098 159.611 10.8575 160.841 9.6105C162.103 8.34767 163.585 7.36897 165.32 6.65864C167.039 5.93251 168.963 5.53788 171.044 5.52209H174.577V8.86859H171.155C169.657 8.86859 168.285 9.13693 167.023 9.68942C165.761 10.2103 164.673 10.9523 163.727 11.8836C162.812 12.7991 162.087 13.8883 161.567 15.1511C161.046 16.414 160.778 17.7873 160.778 19.2711C160.778 20.7392 161.046 22.1125 161.567 23.3911C162.087 24.6539 162.812 25.7431 163.727 26.6902C164.673 27.6058 165.777 28.3319 167.023 28.8528C168.285 29.3737 169.657 29.6579 171.155 29.6736H174.577V33.0201H171.044Z" fill="#F27400"/>
<path d="M27.9922 33.4148L25.1536 31.7731C25.1536 31.7731 34.6158 15.4353 34.6473 15.3721C35.6251 13.6673 34.7262 12.294 33.638 11.631C32.5499 10.968 30.9097 10.7786 29.8531 12.4361L23.1508 22.8386L20.4067 21.0706L27.1091 10.6681C29.2066 7.43213 32.8337 7.30585 35.357 8.85281C37.8644 10.3998 39.4099 13.6989 37.486 17.0296C37.4702 17.0454 37.4702 17.0612 37.4544 17.077L27.9922 33.4148Z" fill="url(#paint0_linear_1104_2)"/>
<path d="M16.3538 36.2088C14.4771 36.2088 12.5689 35.3406 11.3231 33.2411C11.3073 33.2253 11.3073 33.2095 11.2915 33.1938L1.70319 16.9033L4.52607 15.2459C4.52607 15.2459 14.1144 31.5363 14.1459 31.5837C15.1552 33.2727 16.7953 33.1464 17.8993 32.5308C19.0032 31.9152 19.9652 30.5734 19.0505 28.837L13.2786 17.8978L16.1645 16.3666L21.9365 27.3058C23.7185 30.6997 22.0626 33.9357 19.4921 35.3721C18.5458 35.9088 17.4577 36.2088 16.3538 36.2088Z" fill="url(#paint1_linear_1104_2)"/>
<path d="M22.2677 15.7036L9.90375 15.4195C6.0558 15.309 4.05298 12.2782 4.05298 9.32636C4.05298 6.3745 6.07157 3.34372 9.90375 3.23323C9.96683 3.23323 10.0457 3.21744 10.1245 3.21744L28.8439 2.77545L28.9227 6.04301C28.9227 6.04301 10.0299 6.485 9.9826 6.485C8.01132 6.53236 7.31743 8.03196 7.31743 9.29479C7.31743 10.5576 8.01132 12.0572 9.9826 12.1046L22.3465 12.3887L22.2677 15.7036Z" fill="url(#paint2_linear_1104_2)"/>
<defs>
<linearGradient id="paint0_linear_1104_2" x1="27.4101" y1="8.61775" x2="32.5891" y2="31.2045" gradientUnits="userSpaceOnUse">
<stop stop-color="#D92B04"/>
<stop offset="0.0001" stop-color="#F27400"/>
<stop offset="1" stop-color="#F27400" stop-opacity="0"/>
</linearGradient>
<linearGradient id="paint1_linear_1104_2" x1="23.5815" y1="28.5734" x2="1.37672" y2="22.0131" gradientUnits="userSpaceOnUse">
<stop stop-color="#D92B04"/>
<stop offset="0.0001" stop-color="#F27400"/>
<stop offset="1" stop-color="#F27400" stop-opacity="0"/>
</linearGradient>
<linearGradient id="paint2_linear_1104_2" x1="8.0067" y1="16.2175" x2="24.5751" y2="0.0342868" gradientUnits="userSpaceOnUse">
<stop stop-color="#D92B04"/>
<stop offset="0.0001" stop-color="#F27400"/>
<stop offset="1" stop-color="#F27400" stop-opacity="0"/>
</linearGradient>
</defs>
</svg>
